<?xml version="1.0" standalone="no"?>
<!DOCTYPE svg PUBLIC "-//W3C//DTD SVG 20010904//EN"
 "http://www.w3.org/TR/2001/REC-SVG-20010904/DTD/svg10.dtd">
<svg version="1.0" xmlns="http://www.w3.org/2000/svg"
 width="570.000000pt" height="435.000000pt" viewBox="0 0 570.000000 435.000000"
 preserveAspectRatio="xMidYMid meet">
<metadata>
Created by potrace 1.16, written by Peter Selinger 2001-2019
</metadata>
<g transform="translate(0.000000,435.000000) scale(0.100000,-0.100000)"
fill="#000000" stroke="none">
<path d="M2920 4336 c-87 -33 -90 -37 -90 -92 0 -28 -3 -79 -6 -113 l-7 -61
-53 0 c-60 0 -70 -13 -58 -75 3 -19 3 -35 0 -35 -4 0 -29 12 -57 26 -28 14
-52 24 -54 22 -1 -2 -30 -36 -64 -77 l-61 -73 7 -105 6 -104 -55 -57 -55 -57
-12 -300 c-11 -272 -17 -336 -38 -415 -14 -54 -21 57 -17 252 5 207 0 235 -36
188 -27 -36 -40 -16 -40 60 0 63 -2 71 -25 86 -17 11 -25 25 -25 45 0 16 5 29
10 29 6 0 10 28 10 64 0 64 -1 66 -61 146 l-61 81 -54 -74 c-30 -41 -60 -77
-67 -80 -12 -4 -11 -23 4 -114 21 -120 24 -199 9 -237 -11 -31 -36 -34 -45 -6
-3 11 -12 20 -20 20 -8 0 -17 -9 -20 -20 -3 -11 -12 -20 -20 -20 -8 0 -17 9
-20 20 -3 11 -13 20 -21 20 -15 0 -17 -15 -14 -87 l2 -43 -56 0 c-45 0 -57 -4
-66 -20 -9 -17 -8 -20 8 -20 28 0 68 -35 96 -83 24 -42 24 -43 10 -122 -16
-87 -13 -170 8 -204 12 -20 10 -25 -17 -47 -35 -28 -68 -33 -58 -7 7 17 -5 16
-51 -3 -17 -6 -16 -4 4 24 30 40 19 53 -16 21 l-27 -24 17 32 c9 18 16 39 16
49 0 9 13 33 30 54 16 20 27 40 23 44 -17 17 -38 -2 -94 -86 -34 -51 -75 -109
-91 -129 -27 -36 -37 -69 -19 -69 4 0 20 18 35 40 30 46 53 51 62 15 7 -29 8
-29 37 -14 21 12 21 11 5 -8 -10 -11 -18 -24 -18 -29 0 -19 -56 -54 -68 -42
-7 7 -14 3 -22 -12 -9 -16 -15 -19 -23 -11 -16 16 -25 14 -33 -11 -6 -20 -7
-21 -20 -4 -14 20 -34 14 -34 -11 0 -12 -3 -13 -13 -4 -17 13 -27 5 -27 -22 0
-19 -1 -19 -18 -4 -21 19 -32 13 -32 -15 0 -23 -16 -23 -25 0 -6 14 -9 12 -20
-13 l-13 -30 -12 30 c-6 17 -14 42 -17 58 -5 23 -2 27 16 27 11 0 21 5 21 10
0 6 18 10 40 10 46 0 49 5 18 30 l-23 18 28 7 c30 8 37 25 9 25 -10 0 -27 7
-38 15 -17 13 -17 14 -1 15 21 0 22 8 0 32 -15 17 -15 18 8 18 43 0 54 16 20
28 -17 6 -31 16 -31 23 0 7 3 9 6 6 8 -8 44 11 44 23 0 5 -12 13 -27 16 -16 4
-41 14 -58 22 l-30 15 34 12 c49 16 51 35 4 35 -58 0 -68 12 -30 35 l32 20
-26 3 c-15 2 -37 14 -50 28 l-22 24 24 0 c14 0 30 5 37 12 9 9 0 18 -40 37
-55 27 -73 51 -39 51 32 0 33 17 2 30 -16 6 -39 22 -51 35 l-21 22 28 -5 c25
-4 20 4 -47 72 -41 42 -77 76 -81 76 -6 0 -39 -138 -39 -166 0 -8 4 -13 8 -10
13 8 7 -96 -7 -121 -16 -30 -14 -38 5 -22 15 12 16 10 11 -21 -3 -19 -8 -46
-13 -60 l-8 -25 27 18 c34 22 35 8 2 -31 -28 -34 -32 -47 -10 -38 20 7 19 -8
-1 -39 -18 -27 -7 -33 27 -15 25 14 26 -6 2 -32 -14 -15 -15 -21 -4 -27 10 -6
10 -13 2 -29 -9 -16 -7 -21 10 -25 19 -5 19 -7 5 -42 -14 -32 -14 -36 -1 -31
11 4 13 -1 8 -24 -6 -34 -1 -37 21 -14 14 13 16 14 16 0 0 -8 -5 -18 -10 -21
-8 -5 -8 -11 -1 -19 7 -9 7 -16 -1 -24 -9 -9 -4 -12 21 -12 25 0 32 -4 27 -15
-8 -22 7 -18 22 5 10 17 15 18 31 8 15 -9 23 -9 35 1 18 15 17 16 34 -57 9
-39 1 -65 -13 -42 -11 17 -23 11 -27 -12 -2 -18 -10 -23 -33 -23 -25 0 -30 -4
-27 -22 2 -13 -4 -26 -16 -32 -14 -7 -21 -5 -31 12 l-14 21 -8 -22 c-5 -12 -6
-30 -2 -40 5 -14 3 -15 -8 -4 -20 19 -39 14 -39 -10 -1 -20 -4 -18 -19 12 -21
38 -14 50 26 50 26 0 41 19 23 30 -7 4 -9 13 -6 19 5 7 -1 11 -13 11 -26 0
-27 9 -3 26 16 13 16 13 0 14 -20 0 -25 20 -5 20 6 1 2 6 -11 13 -21 12 -21
14 -5 30 14 14 15 17 3 17 -8 0 -22 5 -30 10 -13 8 -12 11 4 23 17 12 15 14
-23 25 -47 14 -63 32 -29 32 21 1 19 4 -17 35 -28 25 -35 35 -22 35 27 0 20
16 -14 30 -17 7 -27 16 -22 19 5 3 -10 25 -34 48 l-42 41 -10 -31 c-17 -56
-23 -127 -11 -127 7 0 9 -12 4 -37 -6 -31 -4 -35 10 -30 9 4 16 5 16 4 0 -1
-4 -17 -10 -35 -8 -29 -7 -33 7 -28 16 7 15 -7 -3 -73 -6 -20 -4 -23 9 -18 20
7 20 6 7 -27 -8 -21 -7 -24 7 -19 13 5 14 3 4 -15 -15 -28 -14 -42 4 -42 11 0
13 -8 8 -30 -6 -31 4 -39 25 -18 9 9 12 8 12 -6 0 -15 3 -16 14 -7 7 6 20 9
29 5 8 -3 18 -1 22 5 10 18 21 13 33 -14 16 -35 15 -58 -2 -52 -21 8 -32 -44
-12 -55 9 -5 16 -20 16 -33 0 -14 5 -24 12 -23 6 2 18 -10 27 -25 16 -28 15
-29 -14 -53 -33 -27 -113 -74 -126 -74 -5 0 -7 12 -4 28 2 15 7 54 10 86 l6
59 -258 -7 c-142 -3 -340 -9 -440 -13 l-183 -6 0 -1023 c0 -563 2 -1024 5
-1024 3 0 112 13 243 30 875 109 1631 154 2582 155 723 0 1138 -17 1835 -76
216 -18 903 -91 998 -106 l37 -6 0 1032 c0 975 -1 1031 -17 1031 -10 0 -188
-16 -396 -35 -209 -19 -393 -35 -411 -35 -29 0 -35 5 -66 68 -31 58 -40 69
-75 80 -22 7 -43 16 -47 20 -11 12 22 206 39 225 19 20 54 22 71 5 19 -19 14
-70 -10 -95 -38 -40 -20 -123 28 -123 44 0 59 78 24 123 -12 15 -20 40 -20 64
0 42 22 84 34 65 4 -6 12 -9 19 -6 7 2 22 -4 34 -15 19 -18 23 -18 42 -5 58
41 65 114 18 176 -52 68 -108 85 -182 54 -43 -18 -58 -47 -59 -112 0 -59 1
-62 32 -67 12 -2 25 -6 28 -10 4 -4 14 -1 22 5 12 10 14 9 10 -7 -2 -13 -10
-19 -23 -17 -73 12 -72 12 -89 71 -26 95 -18 325 9 241 5 -15 12 -19 26 -15
11 4 19 2 19 -4 0 -18 26 -13 45 9 10 11 22 17 28 13 5 -3 17 3 25 13 9 13 16
15 19 7 2 -7 10 -10 17 -7 8 3 16 -4 20 -18 5 -18 8 -20 15 -9 5 7 14 10 21 6
7 -4 14 1 17 15 4 17 8 19 15 8 12 -19 53 34 69 90 16 58 -1 107 -79 221 -74
108 -129 163 -198 197 -52 25 -60 27 -98 15 -22 -6 -56 -16 -74 -21 -18 -4
-55 -28 -81 -52 -27 -23 -67 -58 -91 -77 -56 -45 -80 -99 -80 -181 0 -48 5
-74 20 -98 20 -32 20 -32 45 -16 15 10 24 23 21 31 -4 10 -1 13 13 8 14 -4 21
0 26 15 6 20 8 20 20 4 11 -16 15 -16 29 -5 14 12 16 11 16 -6 0 -26 10 -35
26 -22 10 8 15 5 20 -15 3 -14 10 -26 15 -26 10 0 12 -43 2 -53 -3 -4 -13 -2
-22 5 -9 6 -4 0 10 -14 14 -14 35 -30 46 -36 19 -11 21 -18 16 -89 -3 -43 0
-105 5 -138 6 -39 6 -66 0 -78 -9 -18 -11 -18 -29 -1 -17 15 -19 15 -19 1 0
-9 9 -21 20 -27 19 -10 19 -13 -14 -103 -33 -89 -35 -92 -62 -89 -16 2 -31 5
-33 8 -3 2 5 22 17 43 30 54 28 58 -13 22 -36 -32 -55 -39 -55 -21 0 6 -9 10
-20 10 -11 0 -20 7 -20 15 0 9 -7 18 -16 22 -13 5 -12 9 7 29 24 26 20 30 -12
13 -30 -16 -59 -2 -59 29 l-1 27 -20 -27 c-36 -48 -38 -31 -8 54 16 44 28 82
26 84 -1 2 -24 -33 -51 -77 -51 -83 -82 -109 -45 -37 l21 41 -40 -32 c-22 -17
-43 -28 -45 -24 -3 5 -1 30 4 57 5 27 8 51 6 52 -2 2 -11 -12 -22 -31 -10 -19
-21 -35 -25 -35 -4 0 -19 71 -34 157 -15 87 -33 161 -39 165 -7 4 -23 8 -37 8
-14 0 -42 3 -62 6 -34 6 -37 9 -32 30 4 14 2 30 -4 37 -5 6 -12 60 -15 118
l-5 106 52 13 c90 22 92 41 12 82 -74 38 -173 8 -222 -67 -25 -38 -10 -47 65
-39 l68 6 6 -47 c13 -94 9 -149 -14 -168 -13 -12 -18 -24 -14 -37 5 -16 2 -20
-19 -20 -22 0 -25 5 -28 43 -3 37 -7 44 -35 56 -26 12 -33 21 -33 43 0 42 -17
68 -44 68 -29 0 -36 -16 -29 -68 3 -22 0 -56 -7 -77 l-12 -37 -49 4 c-40 4
-49 2 -50 -11 0 -9 -5 -68 -10 -131 -20 -242 -24 -271 -39 -235 -14 32 -12
435 1 435 7 0 9 10 4 28 -4 15 -10 76 -13 137 -7 105 -8 109 -31 115 -16 4
-29 17 -37 40 -20 57 -16 62 27 30 84 -60 221 -92 236 -53 4 10 -9 46 -31 89
-37 72 -37 74 -30 155 5 66 11 87 29 105 l22 21 -28 34 c-26 32 -29 33 -41 16
-12 -16 -20 -17 -88 -6 -71 12 -75 14 -128 71 -78 82 -85 79 -97 -33 -4 -42
-1 -91 9 -143 l16 -79 -25 -29 c-31 -37 -32 -74 -2 -131 29 -54 31 -120 3
-125 -10 -2 -42 12 -70 32 -29 20 -55 36 -58 36 -4 0 -14 -20 -24 -45 -11 -31
-22 -45 -35 -45 -15 0 -19 -8 -19 -39 0 -22 -14 -74 -31 -116 -28 -70 -29 -78
-15 -94 13 -14 16 -42 16 -134 0 -125 -9 -145 -37 -79 -19 42 -19 89 -8 498
l7 252 -64 113 -63 113 0 128 c1 71 -3 128 -6 128 -4 0 -15 7 -23 16 -19 18
-22 100 -4 106 8 3 8 13 -1 39 -24 67 -30 131 -14 156 18 27 74 63 98 63 14 0
16 -6 11 -34 -5 -26 -3 -35 10 -40 29 -11 121 -6 165 9 48 17 149 75 149 86 0
3 -19 3 -42 -2 -61 -12 -137 -10 -178 4 -28 10 -34 17 -32 35 2 13 -2 30 -8
38 -15 17 -73 18 -120 0z m-2397 -2374 l207 -2 0 -201 c0 -140 -3 -198 -11
-194 -6 4 -69 4 -140 0 l-130 -7 3 -137 3 -136 102 2 c63 2 104 -1 108 -8 4
-6 4 -91 0 -190 l-8 -179 -98 0 -99 0 0 -323 0 -323 -167 -41 c-93 -22 -169
-40 -169 -39 -1 0 -4 401 -8 891 l-6 890 102 -1 c57 0 196 -1 311 -2z m5057
-184 c0 -90 3 -187 6 -215 l7 -53 -116 0 c-63 0 -122 -3 -131 -6 -13 -5 -16
-26 -16 -130 l0 -124 105 0 105 0 2 -145 c1 -80 2 -153 2 -162 1 -16 -11 -18
-104 -19 l-105 -1 1 -117 c1 -64 4 -119 6 -122 3 -2 58 -7 122 -11 l116 -6 0
-219 0 -220 -47 6 c-27 3 -131 13 -233 21 -102 8 -207 18 -235 20 l-50 6 -1
798 0 799 95 12 c271 34 390 48 429 49 l42 1 0 -162z m-1760 -642 l0 -744
-102 -12 c-162 -18 -151 -20 -161 20 -13 47 -162 506 -193 595 l-24 70 5 -155
c3 -85 8 -233 12 -329 l6 -174 -63 6 c-35 4 -104 7 -154 7 l-91 0 -3 693 -3
694 133 26 c73 15 140 27 149 27 16 0 32 -46 175 -532 32 -108 60 -195 61
-194 7 7 -29 598 -43 704 l-5 42 150 0 151 0 0 -744z m-2555 695 c176 -78 244
-280 245 -721 0 -493 -94 -703 -334 -741 -71 -12 -168 2 -225 31 -118 60 -194
215 -222 453 -17 151 -6 515 20 636 43 199 131 319 262 356 70 19 193 13 254
-14z m1424 -2 c123 -11 249 -23 280 -27 l56 -7 3 -193 2 -192 -91 0 -92 0 7
-505 8 -505 -171 0 -171 0 0 473 c0 259 -3 503 -7 540 l-6 68 -84 -3 -83 -3 0
193 0 194 63 -6 c34 -3 163 -15 286 -27z m-596 -12 c95 -47 190 -183 222 -319
18 -75 19 -226 4 -300 -15 -67 -50 -138 -94 -187 -19 -21 -35 -45 -35 -53 0
-20 70 -259 125 -430 25 -75 45 -143 45 -151 0 -10 -34 -16 -147 -25 -82 -7
-158 -12 -169 -12 -19 0 -23 11 -38 83 -36 176 -101 428 -111 427 -6 0 -9 -81
-8 -225 l2 -225 -171 0 -171 0 6 443 c4 243 7 569 7 725 l0 284 238 -4 c237
-3 237 -3 295 -31z m2147 -575 c0 -313 3 -644 7 -735 l6 -167 -176 0 -175 0
-4 728 c-2 400 -2 730 0 735 2 4 79 7 173 7 l169 0 0 -568z m727 471 c-4 -38
-7 -121 -7 -185 l0 -117 -92 -3 -93 -3 4 -550 3 -550 -161 -3 -161 -2 0 535 0
535 -95 0 -95 0 0 193 0 194 108 2 c59 2 177 7 262 11 85 3 195 7 244 8 l89 2
-6 -67z"/>
<path d="M1103 1562 c-28 -18 -35 -74 -40 -332 -6 -276 8 -542 28 -566 22 -27
47 -16 59 24 16 54 24 553 12 711 -9 107 -15 138 -29 152 -10 10 -23 15 -30
11z"/>
<path d="M1876 1511 c-3 -5 -3 -95 1 -200 5 -171 8 -191 23 -191 29 0 69 39
80 78 27 97 2 275 -43 307 -24 17 -53 20 -61 6z"/>
</g>
</svg>
